<svg width="147" height="73" viewBox="0 0 147 73" fill="none" xmlns="http://www.w3.org/2000/svg">
<g id="Group 3" opacity="0.65">
<g id="Group 1">
<path id="Vector 7" d="M112.85 62.4191C120.56 65.6956 137.482 70.2827 143.495 62.4191C151.012 52.5897 148.121 17.3194 118.054 14.4283C87.9877 11.5373 72.9544 48.5423 89.1441 62.4191C105.334 76.296 116.898 -0.0267107 73.5328 14.4283C66.2089 8.06812 48.4388 -0.836199 35.9496 14.4283C23.2292 17.1266 0.910569 28.1896 13.3997 50.8551C0.473302 68.4458 2.4144 94.7984 35.9501 89.5946C43.5737 96.7777 64.8598 99.4241 73.5328 89.5946C84.904 92.4856 105.325 95.5057 109.488 81.1663" stroke="white" stroke-width="11.564" stroke-linecap="round" stroke-linejoin="round"/>
<circle id="Ellipse 3" cx="122.68" cy="35.8174" r="7.51663" fill="white"/>
</g>
</g>
</svg>
